<mxfile host="app.diagrams.net" agent="Mozilla/5.0 (Windows NT 10.0; Win64; x64) AppleWebKit/537.36 (KHTML, like Gecko) Chrome/136.0.0.0 Safari/537.36" version="27.0.5">
  <diagram name="Page-1" id="Wk2SZ3Dgn6wj2FgpQmdu">
    <mxGraphModel dx="1901" dy="1100" grid="1" gridSize="10" guides="1" tooltips="1" connect="1" arrows="1" fold="1" page="1" pageScale="1" pageWidth="1920" pageHeight="1080" math="0" shadow="0">
      <root>
        <mxCell id="0" />
        <mxCell id="1" parent="0" />
        <mxCell id="2mj4cjvI3WKVShRjhSFl-1" value="&lt;div style=&quot;forced-color-adjust: none; box-shadow: none !important; text-align: center;&quot;&gt;&lt;br&gt;&lt;/div&gt;" style="rounded=0;whiteSpace=wrap;html=1;fillColor=light-dark(#FFFFFF,#FFFFFF);" parent="1" vertex="1">
          <mxGeometry width="1920" height="1080" as="geometry" />
        </mxCell>
        <mxCell id="2mj4cjvI3WKVShRjhSFl-2" value="" style="rounded=0;whiteSpace=wrap;html=1;fillColor=light-dark(#FFFFFF,#007FFF);" parent="1" vertex="1">
          <mxGeometry width="1920" height="100" as="geometry" />
        </mxCell>
        <mxCell id="2mj4cjvI3WKVShRjhSFl-3" value="" style="rounded=0;whiteSpace=wrap;html=1;fillColor=light-dark(#FFFFFF,#1A1A1A);" parent="1" vertex="1">
          <mxGeometry y="100" width="1920" height="80" as="geometry" />
        </mxCell>
        <mxCell id="2mj4cjvI3WKVShRjhSFl-5" value="Apply Now" style="text;html=1;align=center;verticalAlign=middle;whiteSpace=wrap;rounded=0;fontSize=30;" parent="1" vertex="1">
          <mxGeometry x="840" y="20" width="240" height="60" as="geometry" />
        </mxCell>
        <mxCell id="2mj4cjvI3WKVShRjhSFl-6" value="Hot Beans Web" style="text;html=1;align=center;verticalAlign=middle;whiteSpace=wrap;rounded=0;fontSize=30;" parent="1" vertex="1">
          <mxGeometry x="300" y="100" width="220" height="80" as="geometry" />
        </mxCell>
        <mxCell id="2mj4cjvI3WKVShRjhSFl-7" value="&lt;font style=&quot;font-size: 20px;&quot;&gt;Company Profile&amp;nbsp; Our Team&amp;nbsp; Job Openings&amp;nbsp; Apply Now&amp;nbsp; Courses&amp;nbsp; Privacy Policy&lt;/font&gt;" style="text;whiteSpace=wrap;html=1;fontSize=25;verticalAlign=middle;" parent="1" vertex="1">
          <mxGeometry x="1020" y="100" width="900" height="80" as="geometry" />
        </mxCell>
        <UserObject label="Full Name&lt;div&gt;&lt;br&gt;&lt;/div&gt;&lt;div&gt;&lt;br&gt;Email Address&lt;/div&gt;&lt;div&gt;&lt;br&gt;&lt;/div&gt;&lt;div&gt;&lt;br&gt;Upload Resume&lt;/div&gt;" id="qmOIuZe4hRwivx6xctNg-1">
          <mxCell style="text;whiteSpace=wrap;html=1;fontColor=light-dark(#000000,#000000);fontSize=20;align=left;verticalAlign=top;" parent="1" vertex="1">
            <mxGeometry x="560" y="210" width="800" height="750" as="geometry" />
          </mxCell>
        </UserObject>
        <mxCell id="6vwyDtYXKGUiSL_Yxjqe-2" value="" style="rounded=0;whiteSpace=wrap;html=1;fillColor=light-dark(#FFFFFF,#1A1A1A);" parent="1" vertex="1">
          <mxGeometry y="1000" width="1920" height="80" as="geometry" />
        </mxCell>
        <mxCell id="6vwyDtYXKGUiSL_Yxjqe-1" value="Â© 2025 Hot Beans Web. All rights reserved." style="text;whiteSpace=wrap;html=1;align=center;verticalAlign=middle;fontSize=20;" parent="1" vertex="1">
          <mxGeometry x="760" y="1000" width="400" height="80" as="geometry" />
        </mxCell>
        <mxCell id="4hJBao95r3IAmpv9mp6L-1" value="&lt;div style=&quot;forced-color-adjust: none; color: rgb(255, 255, 255); font-family: Helvetica; font-style: normal; font-variant-ligatures: normal; font-variant-caps: normal; font-weight: 400; letter-spacing: normal; orphans: 2; text-indent: 0px; text-transform: none; widows: 2; word-spacing: 0px; -webkit-text-stroke-width: 0px; white-space: normal; text-decoration-thickness: initial; text-decoration-style: initial; text-decoration-color: initial; box-shadow: none !important;&quot;&gt;&lt;div style=&quot;forced-color-adjust: none; box-shadow: none !important;&quot;&gt;&lt;span style=&quot;forced-color-adjust: none; box-shadow: none !important;&quot;&gt;&lt;font style=&quot;forced-color-adjust: none; box-shadow: none !important; color: light-dark(rgb(0, 0, 0), rgb(255, 255, 255));&quot;&gt;Submit Application&lt;/font&gt;&lt;/span&gt;&lt;/div&gt;&lt;/div&gt;" style="text;whiteSpace=wrap;html=1;align=center;verticalAlign=middle;fontSize=20;fillColor=light-dark(#FFFFFF,#0066CC);labelBackgroundColor=none;" vertex="1" parent="1">
          <mxGeometry x="560" y="440" width="800" height="60" as="geometry" />
        </mxCell>
        <mxCell id="4hJBao95r3IAmpv9mp6L-3" value="&lt;span style=&quot;white-space: pre;&quot;&gt;&#x9;&lt;/span&gt;&lt;span style=&quot;white-space: pre;&quot;&gt;&#x9;&lt;/span&gt;&lt;span style=&quot;white-space: pre;&quot;&gt;&#x9;&lt;/span&gt;No file chosen" style="rounded=0;whiteSpace=wrap;html=1;fillColor=light-dark(#FFFFFF,#FFFFFF);strokeColor=light-dark(#000000,#000000);fontColor=light-dark(#000000,#000000);align=left;" vertex="1" parent="1">
          <mxGeometry x="560.5" y="390" width="800" height="40" as="geometry" />
        </mxCell>
        <mxCell id="4hJBao95r3IAmpv9mp6L-2" value="Choose f&lt;span style=&quot;background-color: transparent;&quot;&gt;ile&lt;/span&gt;" style="rounded=0;whiteSpace=wrap;html=1;fillColor=light-dark(#FFFFFF,#FFFFFF);strokeColor=light-dark(#000000,#000000);fontColor=light-dark(#000000,#000000);" vertex="1" parent="1">
          <mxGeometry x="560.5" y="390" width="80" height="40" as="geometry" />
        </mxCell>
        <mxCell id="4hJBao95r3IAmpv9mp6L-6" value="" style="rounded=0;whiteSpace=wrap;html=1;fillColor=light-dark(#FFFFFF,#FFFFFF);strokeColor=light-dark(#000000,#000000);fontColor=light-dark(#000000,#000000);align=left;" vertex="1" parent="1">
          <mxGeometry x="560" y="250" width="800" height="40" as="geometry" />
        </mxCell>
        <mxCell id="4hJBao95r3IAmpv9mp6L-7" value="" style="rounded=0;whiteSpace=wrap;html=1;fillColor=light-dark(#FFFFFF,#FFFFFF);strokeColor=light-dark(#000000,#000000);fontColor=light-dark(#000000,#000000);align=left;" vertex="1" parent="1">
          <mxGeometry x="560.5" y="320" width="800" height="40" as="geometry" />
        </mxCell>
      </root>
    </mxGraphModel>
  </diagram>
</mxfile>
